TITLE ""
FILE "DISC2Track07.mp3" MP3
  TRACK 01 AUDIO
    TITLE "DISC2Track07_01"
    INDEX 01 00:00:00
  TRACK 02 AUDIO
    TITLE "DISC2Track07_02"
    INDEX 01 00:04:30
  TRACK 03 AUDIO
    TITLE "DISC2Track07_03"
    INDEX 01 00:04:53
  TRACK 04 AUDIO
    TITLE "DISC2Track07_04"
    INDEX 01 00:07:48
  TRACK 05 AUDIO
    TITLE "DISC2Track07_05"
    INDEX 01 00:10:07
  TRACK 06 AUDIO
    TITLE "DISC2Track07_06"
    INDEX 01 00:12:33
  TRACK 07 AUDIO
    TITLE "DISC2Track07_07"
    INDEX 01 00:12:59
  TRACK 08 AUDIO
    TITLE "DISC2Track07_08"
    INDEX 01 00:14:28
  TRACK 09 AUDIO
    TITLE "DISC2Track07_09"
    INDEX 01 00:16:15
  TRACK 10 AUDIO
    TITLE "DISC2Track07_10"
    INDEX 01 00:18:02
  TRACK 11 AUDIO
    TITLE "DISC2Track07_11"
    INDEX 01 00:18:26
  TRACK 12 AUDIO
    TITLE "DISC2Track07_12"
    INDEX 01 00:21:34
  TRACK 13 AUDIO
    TITLE "DISC2Track07_13"
    INDEX 01 00:23:60
  TRACK 14 AUDIO
    TITLE "DISC2Track07_14"
    INDEX 01 00:26:02
  TRACK 15 AUDIO
    TITLE "DISC2Track07_15"
    INDEX 01 00:26:29
  TRACK 16 AUDIO
    TITLE "DISC2Track07_16"
    INDEX 01 00:29:67
  TRACK 17 AUDIO
    TITLE "DISC2Track07_17"
    INDEX 01 00:32:61
  TRACK 18 AUDIO
    TITLE "DISC2Track07_18"
    INDEX 01 00:35:50
  TRACK 19 AUDIO
    TITLE "DISC2Track07_19"
    INDEX 01 00:35:73
  TRACK 20 AUDIO
    TITLE "DISC2Track07_20"
    INDEX 01 00:40:49
  TRACK 21 AUDIO
    TITLE "DISC2Track07_21"
    INDEX 01 00:44:53
  TRACK 22 AUDIO
    TITLE "DISC2Track07_22"
    INDEX 01 00:48:49
  TRACK 23 AUDIO
    TITLE "DISC2Track07_23"
    INDEX 01 00:48:72
  TRACK 24 AUDIO
    TITLE "DISC2Track07_24"
    INDEX 01 00:52:19
  TRACK 25 AUDIO
    TITLE "DISC2Track07_25"
    INDEX 01 00:54:51
  TRACK 26 AUDIO
    TITLE "DISC2Track07_26"
    INDEX 01 00:57:00
  TRACK 27 AUDIO
    TITLE "DISC2Track07_27"
    INDEX 01 00:57:24
  TRACK 28 AUDIO
    TITLE "DISC2Track07_28"
    INDEX 01 00:59:15
  TRACK 29 AUDIO
    TITLE "DISC2Track07_29"
    INDEX 01 01:01:28
  TRACK 30 AUDIO
    TITLE "DISC2Track07_30"
    INDEX 01 01:03:09
  TRACK 31 AUDIO
    TITLE "DISC2Track07_31"
    INDEX 01 01:03:32
  TRACK 32 AUDIO
    TITLE "DISC2Track07_32"
    INDEX 01 01:07:65
  TRACK 33 AUDIO
    TITLE "DISC2Track07_33"
    INDEX 01 01:11:28
  TRACK 34 AUDIO
    TITLE "DISC2Track07_34"
    INDEX 01 01:14:58
  TRACK 35 AUDIO
    TITLE "DISC2Track07_35"
    INDEX 01 01:15:08
  TRACK 36 AUDIO
    TITLE "DISC2Track07_36"
    INDEX 01 01:18:57
  TRACK 37 AUDIO
    TITLE "DISC2Track07_37"
    INDEX 01 01:21:56
  TRACK 38 AUDIO
    TITLE "DISC2Track07_38"
    INDEX 01 01:24:46
  TRACK 39 AUDIO
    TITLE "DISC2Track07_39"
    INDEX 01 01:24:70
  TRACK 40 AUDIO
    TITLE "DISC2Track07_40"
    INDEX 01 01:28:44
  TRACK 41 AUDIO
    TITLE "DISC2Track07_41"
    INDEX 01 01:31:23
  TRACK 42 AUDIO
    TITLE "DISC2Track07_42"
    INDEX 01 01:34:00
  TRACK 43 AUDIO
    TITLE "DISC2Track07_43"
    INDEX 01 01:34:25
  TRACK 44 AUDIO
    TITLE "DISC2Track07_44"
    INDEX 01 01:37:41
  TRACK 45 AUDIO
    TITLE "DISC2Track07_45"
    INDEX 01 01:40:14
  TRACK 46 AUDIO
    TITLE "DISC2Track07_46"
    INDEX 01 01:42:54
  TRACK 47 AUDIO
    TITLE "DISC2Track07_47"
    INDEX 01 01:43:03
  TRACK 48 AUDIO
    TITLE "DISC2Track07_48"
    INDEX 01 01:47:43
  TRACK 49 AUDIO
    TITLE "DISC2Track07_49"
    INDEX 01 01:51:37
  TRACK 50 AUDIO
    TITLE "DISC2Track07_50"
    INDEX 01 01:55:41
